<?xml version="1.0" encoding="UTF-8" standalone="no"?>
<!-- Created with Inkscape (http://www.inkscape.org/) -->

<svg
   version="1.1"
   id="svg1787"
   width="880"
   height="880"
   viewBox="0 0 880 880"
   sodipodi:docname="iceberg-ocean-vector.svg"
   inkscape:version="1.2 (dc2aedaf03, 2022-05-15)"
   xmlns:inkscape="http://www.inkscape.org/namespaces/inkscape"
   xmlns:sodipodi="http://sodipodi.sourceforge.net/DTD/sodipodi-0.dtd"
   xmlns="http://www.w3.org/2000/svg"
   xmlns:svg="http://www.w3.org/2000/svg">
  <defs
     id="defs1791">
    <clipPath
       clipPathUnits="userSpaceOnUse"
       id="clipPath1899">
      <path
         d="M 0,660 H 660 V 0 H 0 Z"
         id="path1897" />
    </clipPath>
  </defs>
  <sodipodi:namedview
     id="namedview1789"
     pagecolor="#ffffff"
     bordercolor="#000000"
     borderopacity="0.25"
     inkscape:showpageshadow="2"
     inkscape:pageopacity="0.0"
     inkscape:pagecheckerboard="0"
     inkscape:deskcolor="#d1d1d1"
     showgrid="false"
     inkscape:zoom="0.95113636"
     inkscape:cx="441.05137"
     inkscape:cy="440.52569"
     inkscape:window-width="1920"
     inkscape:window-height="1017"
     inkscape:window-x="-8"
     inkscape:window-y="-8"
     inkscape:window-maximized="1"
     inkscape:current-layer="g1795">
    <inkscape:page
       x="0"
       y="0"
       id="page1793"
       width="880"
       height="880" />
  </sodipodi:namedview>
  <g
     id="g1795"
     inkscape:groupmode="layer"
     inkscape:label="Page 1"
     transform="matrix(1.3333333,0,0,-1.3333333,0,880)">
    <path
       d="M 0.45,0.621 H 659.495 V 659.666 H 0.45 Z"
       style="fill:#9be2fa;fill-opacity:1;fill-rule:nonzero;stroke:none"
       id="path1797" />
    <path
       d="M 0.45,0.621 H 659.495 V 414.933 H 0.45 Z"
       style="fill:#2da3ca;fill-opacity:1;fill-rule:nonzero;stroke:none"
       id="path1799" />
    <g
       id="g1801"
       transform="translate(96.7119,159.4521)">
      <path
         d="m 0,0 -26.099,37.141 34.129,28.106 76.289,7.026 68.258,23.088 94.358,1.004 47.178,-26.098 60.228,-4.016 91.345,-50.189 v -48.183 l -71.269,-28.106 -33.125,24.09 -34.13,-34.128 -110.417,3.011 -39.15,35.133 L 53.202,-57.216 15.057,-14.053 33.126,4.016 Z"
         style="fill:#1b87ab;fill-opacity:1;fill-rule:evenodd;stroke:none"
         id="path1803" />
    </g>
    <g
       id="g1805"
       transform="translate(96.7119,159.4521)">
      <path
         d="M 0,0 33.126,4.016 V 52.198 L 0,48.183 Z"
         style="fill:#1e93ba;fill-opacity:1;fill-rule:evenodd;stroke:none"
         id="path1807" />
    </g>
    <g
       id="g1809"
       transform="translate(542.3984,175.5137)">
      <path
         d="m 0,0 v -48.183 l -71.27,-28.106 v 48.182 z"
         style="fill:#1e93ba;fill-opacity:1;fill-rule:evenodd;stroke:none"
         id="path1811" />
    </g>
    <g
       id="g1813"
       transform="translate(438.0039,123.3154)">
      <path
         d="M 0,0 V 48.183 L -34.13,14.053 V -34.128 Z"
         style="fill:#1e93ba;fill-opacity:1;fill-rule:evenodd;stroke:none"
         id="path1815" />
    </g>
    <g
       id="g1817"
       transform="translate(254.3071,127.3311)">
      <path
         d="M 0,0 V 48.183 L -104.393,23.088 v -48.183 z"
         style="fill:#1e93ba;fill-opacity:1;fill-rule:evenodd;stroke:none"
         id="path1819" />
    </g>
    <g
       id="g1821"
       transform="translate(293.4565,92.1982)">
      <path
         d="M 0,0 V 48.183 L -39.149,83.316 V 35.133 Z"
         style="fill:#127da1;fill-opacity:1;fill-rule:evenodd;stroke:none"
         id="path1823" />
    </g>
    <g
       id="g1825"
       transform="translate(111.769,145.3994)">
      <path
         d="M 0,0 V 48.183 L 38.145,5.02 v -48.183 z"
         style="fill:#1b87ab;fill-opacity:1;fill-rule:evenodd;stroke:none"
         id="path1827" />
    </g>
    <g
       id="g1829"
       transform="translate(70.6128,196.5928)">
      <path
         d="M 0,0 V 48.183 L 26.099,11.042 v -48.183 z"
         style="fill:#1b87ab;fill-opacity:1;fill-rule:evenodd;stroke:none"
         id="path1831" />
    </g>
    <g
       id="g1833"
       transform="translate(286.2842,414.9331)">
      <path
         d="M 0,0 24.856,28.904 49.715,29.792 69.243,22.691 86.111,25.353 123.397,0 Z"
         style="fill:#dbf6ff;fill-opacity:1;fill-rule:evenodd;stroke:none"
         id="path1835" />
    </g>
    <g
       id="g1837"
       transform="translate(157.1182,414.9331)">
      <path
         d="m 0,0 -3.997,13.369 -10.651,3.107 -5.326,11.541 -14.649,6.658 -9.764,-6.214 L -55.04,15.145 -59.48,0 Z"
         style="fill:#dbf6ff;fill-opacity:1;fill-rule:evenodd;stroke:none"
         id="path1839" />
    </g>
    <g
       id="g1841"
       transform="translate(96.7119,207.6348)">
      <path
         d="m 0,0 -26.099,37.141 34.129,28.106 76.289,7.026 68.258,23.087 94.358,1.004 47.178,-26.097 60.228,-4.016 91.345,-50.19 v -48.182 l -71.269,-28.107 -33.125,24.091 -34.13,-34.13 -110.417,3.013 -39.15,35.133 L 53.202,-57.216 15.057,-14.053 33.126,4.016 Z"
         style="fill:#bdddf0;fill-opacity:1;fill-rule:evenodd;stroke:none"
         id="path1843" />
    </g>
    <g
       id="g1845"
       transform="translate(96.7119,207.6348)">
      <path
         d="M 0,0 33.126,4.016 V 52.198 L 0,48.183 Z"
         style="fill:#dbf6ff;fill-opacity:1;fill-rule:evenodd;stroke:none"
         id="path1847" />
    </g>
    <g
       id="g1849"
       transform="translate(96.7119,255.8174)">
      <path
         d="m 0,0 -26.099,37.142 34.129,28.105 76.289,7.026 68.258,23.087 94.358,1.004 47.178,-26.098 60.228,-4.016 62.235,-40.152 29.11,-58.22 -71.269,-28.107 -33.125,24.091 -34.13,-34.129 -110.417,3.012 -39.15,35.133 -104.393,-25.096 -38.145,43.164 18.069,18.07 z"
         style="fill:#f0fbff;fill-opacity:1;fill-rule:evenodd;stroke:none"
         id="path1851" />
    </g>
    <g
       id="g1853"
       transform="translate(542.3984,223.6953)">
      <path
         d="m 0,0 v -48.182 l -71.27,-28.106 v 48.182 z"
         style="fill:#dbf6ff;fill-opacity:1;fill-rule:evenodd;stroke:none"
         id="path1855" />
    </g>
    <g
       id="g1857"
       transform="translate(438.0039,171.498)">
      <path
         d="M 0,0 V 48.182 L -34.13,14.053 V -34.13 Z"
         style="fill:#dbf6ff;fill-opacity:1;fill-rule:evenodd;stroke:none"
         id="path1859" />
    </g>
    <g
       id="g1861"
       transform="translate(254.3071,175.5137)">
      <path
         d="M 0,0 V 48.182 L -104.393,23.086 v -48.181 z"
         style="fill:#dbf6ff;fill-opacity:1;fill-rule:evenodd;stroke:none"
         id="path1863" />
    </g>
    <g
       id="g1865"
       transform="translate(293.4565,140.3809)">
      <path
         d="M 0,0 V 48.182 L -39.149,83.314 V 35.133 Z"
         style="fill:#acd1e6;fill-opacity:1;fill-rule:evenodd;stroke:none"
         id="path1867" />
    </g>
    <g
       id="g1869"
       transform="translate(111.769,193.582)">
      <path
         d="M 0,0 V 48.182 L 38.145,5.018 v -48.181 z"
         style="fill:#acd1e6;fill-opacity:1;fill-rule:evenodd;stroke:none"
         id="path1871" />
    </g>
    <g
       id="g1873"
       transform="translate(70.6128,244.7754)">
      <path
         d="M 0,0 V 48.184 L 26.099,11.042 v -48.183 z"
         style="fill:#acd1e6;fill-opacity:1;fill-rule:evenodd;stroke:none"
         id="path1875" />
    </g>
    <g
       id="g1877"
       transform="translate(463.9521,376.5947)">
      <path
         d="M 0,0 H 170.002 L 155.297,54.882 132.716,65.249 116.737,110.524 77.232,122.952 49.713,75.902 14.647,42.168 15.979,19.53 Z"
         style="fill:#f0fbff;fill-opacity:1;fill-rule:evenodd;stroke:none"
         id="path1879" />
    </g>
    <g
       id="g1881"
       transform="translate(541.1846,499.5469)">
      <path
         d="m 0,0 -1.775,-17.754 32.846,-42.612 v -24.247 l -10.652,-10.375 -5.327,25.744 -31.958,3.551 -0.889,15.98 -9.765,2.663 5.327,34.621 z"
         style="fill:#acd1e6;fill-opacity:1;fill-rule:evenodd;stroke:none"
         id="path1883" />
    </g>
    <g
       id="g1885"
       transform="translate(463.9521,376.5947)">
      <path
         d="m 0,0 h 170.002 l -14.705,-26.153 -22.581,-4.94 -15.979,-21.576 -39.505,-5.923 -27.519,22.422 -35.066,16.076 1.332,10.787 z"
         style="fill:#1e93ba;fill-opacity:1;fill-rule:evenodd;stroke:none"
         id="path1887" />
    </g>
    <g
       id="g1889"
       transform="translate(541.1846,318.0029)">
      <path
         d="M 0,0 -1.775,8.461 31.071,28.768 V 40.322 L 20.419,45.266 15.092,32.999 -16.866,31.305 -17.755,23.69 -27.52,22.422 -22.193,5.924 Z"
         style="fill:#1b87ab;fill-opacity:1;fill-rule:evenodd;stroke:none"
         id="path1891" />
    </g>
    <g
       id="g1893">
      <g
         id="g1895"
         clip-path="url(#clipPath1899)">
        <g
           id="g1901"
           transform="translate(85.7754,508.0459)">
          <path
             d="M 0,0 C 25.634,0 46.541,20.907 46.541,46.541 46.541,72.175 25.634,93.083 0,93.083 -25.634,93.083 -46.542,72.175 -46.542,46.541 -46.542,20.907 -25.634,0 0,0"
             style="fill:#fffbdb;fill-opacity:1;fill-rule:evenodd;stroke:none"
             id="path1903" />
        </g>
        <g
           id="g1905"
           transform="translate(286.2842,414.9331)">
          <path
             d="m 0,0 24.856,-14.196 24.859,-0.435 19.528,3.488 16.868,-1.309 L 123.397,0 Z"
             style="fill:#1e93ba;fill-opacity:1;fill-rule:evenodd;stroke:none"
             id="path1907" />
        </g>
        <g
           id="g1909"
           transform="translate(157.1182,414.9331)">
          <path
             d="m 0,0 -3.997,-6.565 -10.651,-1.527 -5.326,-5.667 -14.649,-3.271 -9.764,3.052 L -55.04,-7.437 -59.48,0 Z"
             style="fill:#1e93ba;fill-opacity:1;fill-rule:evenodd;stroke:none"
             id="path1911" />
        </g>
      </g>
    </g>
  </g>
</svg>
